<mxfile host="65bd71144e">
    <diagram id="1DQvj26_JfaS0a7XS1qU" name="Page-1">
        <mxGraphModel dx="1942" dy="745" grid="1" gridSize="10" guides="1" tooltips="1" connect="1" arrows="1" fold="1" page="1" pageScale="1" pageWidth="850" pageHeight="1100" math="0" shadow="0">
            <root>
                <mxCell id="0"/>
                <mxCell id="1" parent="0"/>
                <mxCell id="nIWP1sRZeY-BwN4EGfYq-29" style="edgeStyle=orthogonalEdgeStyle;rounded=0;orthogonalLoop=1;jettySize=auto;html=1;exitX=1;exitY=0.5;exitDx=0;exitDy=0;" parent="1" source="nIWP1sRZeY-BwN4EGfYq-6" target="nIWP1sRZeY-BwN4EGfYq-13" edge="1">
                    <mxGeometry relative="1" as="geometry"/>
                </mxCell>
                <mxCell id="nIWP1sRZeY-BwN4EGfYq-6" value="PERC&lt;br&gt;Database" style="shape=datastore;whiteSpace=wrap;html=1;" parent="1" vertex="1">
                    <mxGeometry x="40" y="280" width="60" height="60" as="geometry"/>
                </mxCell>
                <mxCell id="nIWP1sRZeY-BwN4EGfYq-31" style="edgeStyle=orthogonalEdgeStyle;rounded=0;orthogonalLoop=1;jettySize=auto;html=1;exitX=0;exitY=0.75;exitDx=0;exitDy=0;entryX=1;entryY=0.7;entryDx=0;entryDy=0;" parent="1" source="nIWP1sRZeY-BwN4EGfYq-13" target="nIWP1sRZeY-BwN4EGfYq-6" edge="1">
                    <mxGeometry relative="1" as="geometry">
                        <Array as="points">
                            <mxPoint x="200" y="322"/>
                        </Array>
                    </mxGeometry>
                </mxCell>
                <mxCell id="nIWP1sRZeY-BwN4EGfYq-53" style="edgeStyle=orthogonalEdgeStyle;rounded=0;orthogonalLoop=1;jettySize=auto;html=1;exitX=1;exitY=0.5;exitDx=0;exitDy=0;entryX=0.55;entryY=0.95;entryDx=0;entryDy=0;entryPerimeter=0;" parent="1" source="nIWP1sRZeY-BwN4EGfYq-13" target="nIWP1sRZeY-BwN4EGfYq-34" edge="1">
                    <mxGeometry relative="1" as="geometry"/>
                </mxCell>
                <mxCell id="nIWP1sRZeY-BwN4EGfYq-13" value="Sysaid" style="rounded=0;whiteSpace=wrap;html=1;" parent="1" vertex="1">
                    <mxGeometry x="200" y="280" width="120" height="60" as="geometry"/>
                </mxCell>
                <mxCell id="nIWP1sRZeY-BwN4EGfYq-48" style="edgeStyle=orthogonalEdgeStyle;rounded=0;orthogonalLoop=1;jettySize=auto;html=1;exitX=0.5;exitY=1;exitDx=0;exitDy=0;entryX=0.5;entryY=0;entryDx=0;entryDy=0;startArrow=classic;startFill=1;" parent="1" source="nIWP1sRZeY-BwN4EGfYq-19" target="nIWP1sRZeY-BwN4EGfYq-13" edge="1">
                    <mxGeometry relative="1" as="geometry"/>
                </mxCell>
                <mxCell id="nIWP1sRZeY-BwN4EGfYq-19" value="Email &lt;br&gt;&amp;amp; Transcription&lt;br&gt;Gateway" style="ellipse;whiteSpace=wrap;html=1;" parent="1" vertex="1">
                    <mxGeometry x="200" y="150" width="120" height="80" as="geometry"/>
                </mxCell>
                <mxCell id="nIWP1sRZeY-BwN4EGfYq-32" value="Https" style="text;html=1;strokeColor=none;fillColor=none;align=center;verticalAlign=middle;whiteSpace=wrap;rounded=0;" parent="1" vertex="1">
                    <mxGeometry x="120" y="290" width="40" height="20" as="geometry"/>
                </mxCell>
                <mxCell id="nIWP1sRZeY-BwN4EGfYq-33" value="Https" style="text;html=1;strokeColor=none;fillColor=none;align=center;verticalAlign=middle;whiteSpace=wrap;rounded=0;" parent="1" vertex="1">
                    <mxGeometry x="260" y="240" width="40" height="20" as="geometry"/>
                </mxCell>
                <mxCell id="nIWP1sRZeY-BwN4EGfYq-54" style="edgeStyle=orthogonalEdgeStyle;rounded=0;orthogonalLoop=1;jettySize=auto;html=1;exitX=0.55;exitY=0.95;exitDx=0;exitDy=0;exitPerimeter=0;entryX=1;entryY=0.5;entryDx=0;entryDy=0;" parent="1" source="nIWP1sRZeY-BwN4EGfYq-34" target="nIWP1sRZeY-BwN4EGfYq-13" edge="1">
                    <mxGeometry relative="1" as="geometry">
                        <Array as="points">
                            <mxPoint x="416" y="310"/>
                        </Array>
                    </mxGeometry>
                </mxCell>
                <mxCell id="nIWP1sRZeY-BwN4EGfYq-34" value="PERC&lt;br&gt;site" style="ellipse;shape=cloud;whiteSpace=wrap;html=1;" parent="1" vertex="1">
                    <mxGeometry x="350" y="140" width="120" height="80" as="geometry"/>
                </mxCell>
                <mxCell id="nIWP1sRZeY-BwN4EGfYq-38" value="Https" style="text;html=1;strokeColor=none;fillColor=none;align=center;verticalAlign=middle;whiteSpace=wrap;rounded=0;" parent="1" vertex="1">
                    <mxGeometry x="360" y="290" width="40" height="20" as="geometry"/>
                </mxCell>
                <mxCell id="nIWP1sRZeY-BwN4EGfYq-52" style="edgeStyle=orthogonalEdgeStyle;rounded=0;orthogonalLoop=1;jettySize=auto;html=1;entryX=0.5;entryY=0;entryDx=0;entryDy=0;" parent="1" source="nIWP1sRZeY-BwN4EGfYq-46" target="nIWP1sRZeY-BwN4EGfYq-19" edge="1">
                    <mxGeometry relative="1" as="geometry">
                        <Array as="points">
                            <mxPoint x="125" y="120"/>
                            <mxPoint x="260" y="120"/>
                        </Array>
                    </mxGeometry>
                </mxCell>
                <mxCell id="nIWP1sRZeY-BwN4EGfYq-46" value="phone call&lt;br&gt;transcription" style="shape=document;whiteSpace=wrap;html=1;boundedLbl=1;" parent="1" vertex="1">
                    <mxGeometry x="70" y="40" width="90" height="50" as="geometry"/>
                </mxCell>
                <mxCell id="nIWP1sRZeY-BwN4EGfYq-51" value="" style="edgeStyle=orthogonalEdgeStyle;rounded=0;orthogonalLoop=1;jettySize=auto;html=1;startArrow=classic;startFill=1;" parent="1" source="nIWP1sRZeY-BwN4EGfYq-47" target="nIWP1sRZeY-BwN4EGfYq-19" edge="1">
                    <mxGeometry relative="1" as="geometry"/>
                </mxCell>
                <mxCell id="nIWP1sRZeY-BwN4EGfYq-47" value="e-mail" style="shape=document;whiteSpace=wrap;html=1;boundedLbl=1;" parent="1" vertex="1">
                    <mxGeometry x="215" y="40" width="90" height="50" as="geometry"/>
                </mxCell>
                <mxCell id="nIWP1sRZeY-BwN4EGfYq-50" style="edgeStyle=orthogonalEdgeStyle;rounded=0;orthogonalLoop=1;jettySize=auto;html=1;startArrow=classic;startFill=1;" parent="1" source="nIWP1sRZeY-BwN4EGfYq-49" target="nIWP1sRZeY-BwN4EGfYq-19" edge="1">
                    <mxGeometry relative="1" as="geometry">
                        <Array as="points">
                            <mxPoint x="425" y="120"/>
                            <mxPoint x="260" y="120"/>
                        </Array>
                    </mxGeometry>
                </mxCell>
                <mxCell id="nIWP1sRZeY-BwN4EGfYq-49" value="fax" style="shape=document;whiteSpace=wrap;html=1;boundedLbl=1;" parent="1" vertex="1">
                    <mxGeometry x="360" y="40" width="90" height="50" as="geometry"/>
                </mxCell>
            </root>
        </mxGraphModel>
    </diagram>
</mxfile>